<?xml version="1.0" standalone="no"?>
 <!DOCTYPE svg PUBLIC "-//W3C//DTD SVG 1.1//EN" 
 "http://www.w3.org/Graphics/SVG/1.1/DTD/svg11.dtd"> 
<svg
  xmlns:svg="http://www.w3.org/2000/svg"
  xmlns="http://www.w3.org/2000/svg"
  xmlns:xlink="http://www.w3.org/1999/xlink"
  xmlns:inkscape="http://www.inkscape.org/namespaces/inkscape"
  version="1.1"
  width="41.046400mm" height="47.447200mm" viewBox="0.000000 0.000000 41.046400 47.447200">
<title>SVG Image created as rusty-bc250-atx-F_Cu.svg date 2026-04-17T07:24:36 </title>
  <desc>Image generated by PCBNEW </desc>
<g style="fill:#000000; fill-opacity:1.000000;stroke:#000000; stroke-opacity:1.000000;
stroke-linecap:round; stroke-linejoin:round;"
 transform="translate(0 0) scale(1 1)">
<path style="fill:#000000; fill-opacity:1.000000; stroke:none;fill-rule:evenodd;"
d="M 18.353150,35.980000
16.653150,35.980000
16.653150,37.680000
18.353150,37.680000
Z" /> 
</g>
<g style="fill:#000000; fill-opacity:1.000000; stroke:none;">
<circle cx="20.043150" cy="36.830000" r="0.850000" /> 
<circle cx="13.698150" cy="16.510000" r="0.800000" /> 
<circle cx="3.538150" cy="16.510000" r="0.800000" /> 
<path style="fill:#000000; fill-opacity:1.000000; stroke:none;fill-rule:evenodd;"
d="M 6.928150,35.980000
5.228150,35.980000
5.228150,37.680000
6.928150,37.680000
Z" /> 
<circle cx="8.618150" cy="36.830000" r="0.850000" /> 
<circle cx="11.158150" cy="36.830000" r="0.850000" /> 
<path style="fill:#000000; fill-opacity:1.000000; stroke:none;fill-rule:evenodd;"
d="M 27.248150,35.980000
25.548150,35.980000
25.548150,37.680000
27.248150,37.680000
Z" /> 
<circle cx="28.938150" cy="36.830000" r="0.850000" /> 
<path style="fill:#000000; fill-opacity:1.000000; stroke:none;fill-rule:evenodd;"
d="M 36.133150,35.980000
34.433150,35.980000
34.433150,37.680000
36.133150,37.680000
Z" /> 
<circle cx="37.823150" cy="36.830000" r="0.850000" /> 
<circle cx="3.538150" cy="31.750000" r="0.800000" /> 
<circle cx="13.698150" cy="31.750000" r="0.800000" /> 
<path style="fill:#000000; fill-opacity:1.000000; stroke:none;fill-rule:evenodd;"
d="M 14.248150,29.140000
14.343821,29.120970
14.424927,29.066777
14.479120,28.985671
14.498150,28.890000
14.498150,26.990000
14.479120,26.894329
14.424927,26.813223
14.343821,26.759030
14.248150,26.740000
13.148150,26.740000
13.052479,26.759030
12.971373,26.813223
12.917180,26.894329
12.898150,26.990000
12.898150,28.890000
12.917180,28.985671
12.971373,29.066777
13.052479,29.120970
13.148150,29.140000
Z" /> 
</g>
<g style="fill:none; 
stroke:#000000; stroke-width:1.600000; stroke-opacity:1; 
stroke-linecap:round; stroke-linejoin:round;">
<path d="M11.158150 28.340000
L11.158150 27.540000
" />
<path d="M11.158150 20.720000
L11.158150 19.920000
" />
<path d="M13.698150 20.720000
L13.698150 19.920000
" />
</g>
<g style="fill:#000000; fill-opacity:1.000000; stroke:none;">
<circle cx="37.828150" cy="33.020000" r="0.800000" /> 
<circle cx="37.828150" cy="22.860000" r="0.800000" /> 
<path style="fill:#000000; fill-opacity:1.000000; stroke:none;fill-rule:evenodd;"
d="M 19.998150,1.786850
19.983166,1.711519
19.940494,1.647656
19.876631,1.604984
19.801300,1.590000
17.655000,1.590000
17.579669,1.604984
17.515806,1.647656
17.473134,1.711519
17.458150,1.786850
17.458150,3.393150
17.473134,3.468481
17.515806,3.532344
17.579669,3.575016
17.655000,3.590000
19.801300,3.590000
19.876631,3.575016
19.940494,3.532344
19.983166,3.468481
19.998150,3.393150
Z" /> 
</g>
<g style="fill:none; 
stroke:#000000; stroke-width:2.000000; stroke-opacity:1; 
stroke-linecap:round; stroke-linejoin:round;">
<path d="M18.998150 5.130000
L18.458150 5.130000
" />
<path d="M18.998150 7.670000
L18.458150 7.670000
" />
<path d="M18.998150 10.210000
L18.458150 10.210000
" />
<path d="M18.998150 12.750000
L18.458150 12.750000
" />
<path d="M18.998150 15.290000
L18.458150 15.290000
" />
<path d="M18.998150 17.830000
L18.458150 17.830000
" />
<path d="M18.998150 20.370000
L18.458150 20.370000
" />
<path d="M18.998150 22.910000
L18.458150 22.910000
" />
<path d="M18.998150 25.450000
L18.458150 25.450000
" />
<path d="M18.998150 27.990000
L18.458150 27.990000
" />
<path d="M18.998150 30.530000
L18.458150 30.530000
" />
<path d="M34.238150 30.530000
L33.698150 30.530000
" />
<path d="M34.238150 27.990000
L33.698150 27.990000
" />
<path d="M34.238150 25.450000
L33.698150 25.450000
" />
<path d="M34.238150 22.910000
L33.698150 22.910000
" />
<path d="M34.238150 20.370000
L33.698150 20.370000
" />
<path d="M34.238150 17.830000
L33.698150 17.830000
" />
<path d="M34.238150 15.290000
L33.698150 15.290000
" />
<path d="M34.238150 12.750000
L33.698150 12.750000
" />
<path d="M34.238150 10.210000
L33.698150 10.210000
" />
<path d="M34.238150 7.670000
L33.698150 7.670000
" />
<path d="M34.238150 5.130000
L33.698150 5.130000
" />
<path d="M34.238150 2.590000
L33.698150 2.590000
" />
<path style="fill:#000000; fill-opacity:1.000000; stroke:none;fill-rule:evenodd;"
d="M 2.988150,19.120000
2.892479,19.139030
2.811373,19.193223
2.757180,19.274329
2.738150,19.370000
2.738150,21.270000
2.757180,21.365671
2.811373,21.446777
2.892479,21.500970
2.988150,21.520000
4.088150,21.520000
4.183821,21.500970
4.264927,21.446777
4.319120,21.365671
4.338150,21.270000
4.338150,19.370000
4.319120,19.274329
4.264927,19.193223
4.183821,19.139030
4.088150,19.120000
Z" /> 
</g>
<g style="fill:none; 
stroke:#000000; stroke-width:1.600000; stroke-opacity:1; 
stroke-linecap:round; stroke-linejoin:round;">
<path d="M6.078150 19.920000
L6.078150 20.720000
" />
<path d="M6.078150 27.540000
L6.078150 28.340000
" />
<path d="M3.538150 27.540000
L3.538150 28.340000
" />
</g>
<g style="fill:none; 
stroke:#000000; stroke-width:2.000000; stroke-opacity:1; 
stroke-linecap:round; stroke-linejoin:round;">
<path d="M33.968150 12.750000
L30.158150 12.750000
" />
<path d="M30.158150 12.750000
L28.938150 13.970000
" />
<path d="M28.938150 13.970000
L28.938150 36.830000
" />
<path d="M36.608150 15.290000
L37.828150 16.510000
" />
<path d="M33.968150 15.290000
L36.608150 15.290000
" />
<path d="M37.828150 16.510000
L37.828150 22.860000
" />
<path d="M18.728150 5.130000
L21.368150 5.130000
" />
<path d="M21.368150 5.130000
L23.858150 7.620000
" />
<path d="M23.858150 7.620000
L23.858150 33.015000
" />
<path d="M23.858150 33.015000
L20.043150 36.830000
" />
<path d="M11.158150 6.350000
L14.918150 2.590000
" />
<path d="M37.823150 36.830000
L37.823150 39.375000
" />
<path d="M26.398150 36.830000
L26.398150 7.620000
" />
<path d="M18.778150 40.640000
L25.128150 40.640000
" />
<path d="M26.398150 39.370000
L26.398150 40.640000
" />
<path d="M31.428150 2.590000
L33.968150 2.590000
" />
<path d="M11.158150 20.320000
L6.078150 20.320000
" />
<path d="M26.398150 39.370000
L26.398150 36.830000
" />
<path d="M26.398150 39.370000
L25.128150 40.640000
" />
<path d="M17.503150 36.830000
L17.503150 39.365000
" />
<path d="M25.128150 40.640000
L26.398150 40.640000
" />
<path d="M26.398150 40.640000
L27.668150 40.640000
" />
<path d="M11.158150 20.320000
L11.158150 6.350000
" />
<path d="M36.558150 40.640000
L27.668150 40.640000
" />
<path d="M14.918150 2.590000
L18.728150 2.590000
" />
<path d="M26.398150 7.620000
L31.428150 2.590000
" />
<path d="M37.823150 39.375000
L36.558150 40.640000
" />
<path d="M27.668150 40.640000
L26.398150 39.370000
" />
<path d="M17.503150 39.365000
L18.778150 40.640000
" />
<path d="M8.618150 34.290000
L6.078150 31.750000
" />
<path d="M8.618150 36.830000
L8.618150 34.290000
" />
<path d="M6.078150 31.750000
L3.538150 31.750000
" />
<path d="M11.158150 27.940000
L6.078150 27.940000
" />
<path d="M11.158150 36.830000
L11.158150 27.940000
" />
<path d="M0.998150 35.560000
L0.998150 29.210000
" />
<path d="M2.268150 27.940000
L0.998150 29.210000
" />
<path d="M2.268150 36.830000
L0.998150 35.560000
" />
<path d="M6.078150 36.830000
L2.268150 36.830000
" />
<path d="M3.538150 27.940000
L2.268150 27.940000
" />
<path d="M16.188150 12.750000
L13.698150 15.240000
" />
<path d="M18.728150 12.750000
L16.188150 12.750000
" />
<path d="M13.698150 15.240000
L13.698150 16.510000
" />
<path d="M18.678150 12.700000
L18.728150 12.750000
" />
<path d="M3.538150 16.510000
L3.538150 20.320000
" />
<path d="M35.283150 36.830000
L35.283150 34.295000
" />
<path d="M36.558150 33.020000
L37.828150 33.020000
" />
<path d="M35.283150 34.295000
L36.558150 33.020000
" />
<path d="M13.698150 27.940000
L13.698150 31.750000
" />
<path d="M34.018150 7.620000
L33.968150 7.670000
" />
<path d="M34.018150 25.400000
L33.968150 25.450000
" />
<path d="M34.018150 27.940000
L33.968150 27.990000
" />
<path d="M34.018150 17.780000
L33.968150 17.830000
" />
<path d="M13.748150 20.370000
L13.698150 20.320000
" />
<path d="M18.728150 20.370000
L13.748150 20.370000
" />
</g>
<g style="fill:#FFFFFF; fill-opacity:1.000000; stroke:none;">
<circle cx="17.503150" cy="36.830000" r="0.500000" /> 
</g>
<g style="fill:#FFFFFF; fill-opacity:1.000000; stroke:none;">
<circle cx="20.043150" cy="36.830000" r="0.500000" /> 
</g>
<g style="fill:#FFFFFF; fill-opacity:1.000000; stroke:none;">
<circle cx="13.698150" cy="16.510000" r="0.400000" /> 
</g>
<g style="fill:#FFFFFF; fill-opacity:1.000000; stroke:none;">
<circle cx="3.538150" cy="16.510000" r="0.400000" /> 
</g>
<g style="fill:#FFFFFF; fill-opacity:1.000000; stroke:none;">
<circle cx="6.078150" cy="36.830000" r="0.500000" /> 
</g>
<g style="fill:#FFFFFF; fill-opacity:1.000000; stroke:none;">
<circle cx="8.618150" cy="36.830000" r="0.500000" /> 
</g>
<g style="fill:#FFFFFF; fill-opacity:1.000000; stroke:none;">
<circle cx="11.158150" cy="36.830000" r="0.500000" /> 
</g>
<g style="fill:#FFFFFF; fill-opacity:1.000000; stroke:none;">
<circle cx="26.398150" cy="36.830000" r="0.500000" /> 
</g>
<g style="fill:#FFFFFF; fill-opacity:1.000000; stroke:none;">
<circle cx="28.938150" cy="36.830000" r="0.500000" /> 
</g>
<g style="fill:#FFFFFF; fill-opacity:1.000000; stroke:none;">
<circle cx="35.283150" cy="36.830000" r="0.500000" /> 
</g>
<g style="fill:#FFFFFF; fill-opacity:1.000000; stroke:none;">
<circle cx="37.823150" cy="36.830000" r="0.500000" /> 
</g>
<g style="fill:#FFFFFF; fill-opacity:1.000000; stroke:none;">
<circle cx="3.538150" cy="31.750000" r="0.400000" /> 
</g>
<g style="fill:#FFFFFF; fill-opacity:1.000000; stroke:none;">
<circle cx="13.698150" cy="31.750000" r="0.400000" /> 
</g>
<g style="fill:#FFFFFF; fill-opacity:1.000000; stroke:none;">
<circle cx="13.698150" cy="27.940000" r="0.400000" /> 
</g>
<g style="fill:#FFFFFF; fill-opacity:1.000000; stroke:none;">
<circle cx="11.158150" cy="27.940000" r="0.400000" /> 
</g>
<g style="fill:#FFFFFF; fill-opacity:1.000000; stroke:none;">
<circle cx="11.158150" cy="20.320000" r="0.400000" /> 
</g>
<g style="fill:#FFFFFF; fill-opacity:1.000000; stroke:none;">
<circle cx="13.698150" cy="20.320000" r="0.400000" /> 
</g>
<g style="fill:#FFFFFF; fill-opacity:1.000000; stroke:none;">
<circle cx="37.828150" cy="33.020000" r="0.400000" /> 
</g>
<g style="fill:#FFFFFF; fill-opacity:1.000000; stroke:none;">
<circle cx="37.828150" cy="22.860000" r="0.400000" /> 
</g>
<g style="fill:#FFFFFF; fill-opacity:1.000000; stroke:none;">
<circle cx="18.728150" cy="2.590000" r="0.400000" /> 
</g>
<g style="fill:#FFFFFF; fill-opacity:1.000000; stroke:none;">
<circle cx="18.728150" cy="5.130000" r="0.400000" /> 
</g>
<g style="fill:#FFFFFF; fill-opacity:1.000000; stroke:none;">
<circle cx="18.728150" cy="7.670000" r="0.400000" /> 
</g>
<g style="fill:#FFFFFF; fill-opacity:1.000000; stroke:none;">
<circle cx="18.728150" cy="10.210000" r="0.400000" /> 
</g>
<g style="fill:#FFFFFF; fill-opacity:1.000000; stroke:none;">
<circle cx="18.728150" cy="12.750000" r="0.400000" /> 
</g>
<g style="fill:#FFFFFF; fill-opacity:1.000000; stroke:none;">
<circle cx="18.728150" cy="15.290000" r="0.400000" /> 
</g>
<g style="fill:#FFFFFF; fill-opacity:1.000000; stroke:none;">
<circle cx="18.728150" cy="17.830000" r="0.400000" /> 
</g>
<g style="fill:#FFFFFF; fill-opacity:1.000000; stroke:none;">
<circle cx="18.728150" cy="20.370000" r="0.400000" /> 
</g>
<g style="fill:#FFFFFF; fill-opacity:1.000000; stroke:none;">
<circle cx="18.728150" cy="22.910000" r="0.400000" /> 
</g>
<g style="fill:#FFFFFF; fill-opacity:1.000000; stroke:none;">
<circle cx="18.728150" cy="25.450000" r="0.400000" /> 
</g>
<g style="fill:#FFFFFF; fill-opacity:1.000000; stroke:none;">
<circle cx="18.728150" cy="27.990000" r="0.400000" /> 
</g>
<g style="fill:#FFFFFF; fill-opacity:1.000000; stroke:none;">
<circle cx="18.728150" cy="30.530000" r="0.400000" /> 
</g>
<g style="fill:#FFFFFF; fill-opacity:1.000000; stroke:none;">
<circle cx="33.968150" cy="30.530000" r="0.400000" /> 
</g>
<g style="fill:#FFFFFF; fill-opacity:1.000000; stroke:none;">
<circle cx="33.968150" cy="27.990000" r="0.400000" /> 
</g>
<g style="fill:#FFFFFF; fill-opacity:1.000000; stroke:none;">
<circle cx="33.968150" cy="25.450000" r="0.400000" /> 
</g>
<g style="fill:#FFFFFF; fill-opacity:1.000000; stroke:none;">
<circle cx="33.968150" cy="22.910000" r="0.400000" /> 
</g>
<g style="fill:#FFFFFF; fill-opacity:1.000000; stroke:none;">
<circle cx="33.968150" cy="20.370000" r="0.400000" /> 
</g>
<g style="fill:#FFFFFF; fill-opacity:1.000000; stroke:none;">
<circle cx="33.968150" cy="17.830000" r="0.400000" /> 
</g>
<g style="fill:#FFFFFF; fill-opacity:1.000000; stroke:none;">
<circle cx="33.968150" cy="15.290000" r="0.400000" /> 
</g>
<g style="fill:#FFFFFF; fill-opacity:1.000000; stroke:none;">
<circle cx="33.968150" cy="12.750000" r="0.400000" /> 
</g>
<g style="fill:#FFFFFF; fill-opacity:1.000000; stroke:none;">
<circle cx="33.968150" cy="10.210000" r="0.400000" /> 
</g>
<g style="fill:#FFFFFF; fill-opacity:1.000000; stroke:none;">
<circle cx="33.968150" cy="7.670000" r="0.400000" /> 
</g>
<g style="fill:#FFFFFF; fill-opacity:1.000000; stroke:none;">
<circle cx="33.968150" cy="5.130000" r="0.400000" /> 
</g>
<g style="fill:#FFFFFF; fill-opacity:1.000000; stroke:none;">
<circle cx="33.968150" cy="2.590000" r="0.400000" /> 
</g>
<g style="fill:#FFFFFF; fill-opacity:1.000000; stroke:none;">
<circle cx="3.538150" cy="20.320000" r="0.400000" /> 
</g>
<g style="fill:#FFFFFF; fill-opacity:1.000000; stroke:none;">
<circle cx="6.078150" cy="20.320000" r="0.400000" /> 
</g>
<g style="fill:#FFFFFF; fill-opacity:1.000000; stroke:none;">
<circle cx="6.078150" cy="27.940000" r="0.400000" /> 
</g>
<g style="fill:#FFFFFF; fill-opacity:1.000000; stroke:none;">
<circle cx="3.538150" cy="27.940000" r="0.400000" /> 
</g> 
</svg>
